# xmcd CD database file
#
# Track frame offsets:
#	150
#	22563
#	46920
#	69333
#
# Disc length: 1247 seconds
#
# Revision: 1
# Processed by: cddbd v1.5.2PL0 Copyright (c) Steve Scherf et al.
# Submitted via: CDex 1.70beta3
#
DISCID=2104dd04
DTITLE=SMAP - 友だちへ 〜Say What You Will〜
DYEAR=2005
DGENRE=JPop
TTITLE0=友だちへ 〜Say What You Will〜
TTITLE1=Song of X'smap
TTITLE2=友だちへ 〜Say What You Will〜 (back track)
TTITLE3=Song of X'smap (back track)
EXTD=YEAR: 2005
EXTT0=
EXTT1=
EXTT2=
EXTT3=
PLAYORDER=
